<?xml version="1.0" encoding="UTF-8" standalone="no"?>
<!-- Created with Inkscape (http://www.inkscape.org/) -->

<svg
   version="1.1"
   id="svg2"
   xml:space="preserve"
   width="212.03999"
   height="428.85867"
   viewBox="0 0 212.03999 428.85867"
   sodipodi:docname="lilSOLID_CMJN_Blanc.ai"
   xmlns:inkscape="http://www.inkscape.org/namespaces/inkscape"
   xmlns:sodipodi="http://sodipodi.sourceforge.net/DTD/sodipodi-0.dtd"
   xmlns="http://www.w3.org/2000/svg"
   xmlns:svg="http://www.w3.org/2000/svg"><defs
     id="defs6"><clipPath
       clipPathUnits="userSpaceOnUse"
       id="clipPath16"><path
         d="M 0,321.644 H 159.03 V 0 H 0 Z"
         id="path14" /></clipPath></defs><sodipodi:namedview
     id="namedview4"
     pagecolor="#ffffff"
     bordercolor="#666666"
     borderopacity="1.0"
     inkscape:pageshadow="2"
     inkscape:pageopacity="0.0"
     inkscape:pagecheckerboard="0" /><g
     id="g8"
     inkscape:groupmode="layer"
     inkscape:label="lilSOLID_CMJN_Blanc"
     transform="matrix(1.3333333,0,0,-1.3333333,0,428.85867)"><g
       id="g10"><g
         id="g12"
         clip-path="url(#clipPath16)"><g
           id="g18"
           transform="translate(79.5352,286.6239)"><path
             d="m 0,0 c 6.856,0 12.417,5.561 12.417,12.416 0,6.855 -5.561,12.417 -12.417,12.417 -6.854,0 -12.416,-5.562 -12.416,-12.417 C -12.416,5.561 -6.854,0 0,0 m 11.285,-111.739 v 90.295 c 0,6.232 -5.052,11.284 -11.288,11.284 -6.233,0 -11.285,-5.052 -11.285,-11.284 v -90.295 c 0,-6.234 5.052,-11.283 11.285,-11.283 6.236,0 11.288,5.049 11.288,11.283 m 36.118,-11.285 c 6.224,0 11.284,5.051 11.284,11.286 V 23.704 c 0,6.236 -5.06,11.285 -11.284,11.285 -6.236,0 -11.288,-5.049 -11.288,-11.285 v -135.442 c 0,-6.235 5.052,-11.286 11.288,-11.286 M -47.409,34.991 c -6.23,0 -11.285,-5.053 -11.285,-11.287 v -135.443 c 0,-6.236 5.055,-11.283 11.285,-11.283 6.232,0 11.288,5.047 11.288,11.283 V 23.704 c 0,6.234 -5.056,11.287 -11.288,11.287 m 26.903,-177.65 c -8.393,0 -15.224,-6.83 -15.224,-15.224 0,-8.392 6.831,-15.221 15.224,-15.221 8.395,0 15.224,6.829 15.224,15.221 0,8.394 -6.829,15.224 -15.224,15.224 m 0,-25.999 c -5.943,0 -10.776,4.835 -10.776,10.775 0,5.942 4.833,10.775 10.776,10.775 5.941,0 10.776,-4.833 10.776,-10.775 0,-5.94 -4.835,-10.775 -10.776,-10.775 m -31.108,13.889 c -3.234,0.343 -5.165,1.852 -5.165,4.045 0,1.963 2.178,3.616 4.756,3.616 2.127,0 4.009,-1.095 4.587,-2.662 0.422,-1.157 1.698,-1.754 2.853,-1.323 1.152,0.423 1.746,1.701 1.323,2.853 -1.225,3.339 -4.75,5.581 -8.763,5.581 -5.074,0 -9.206,-3.619 -9.206,-8.065 0,-4.558 3.591,-7.879 9.159,-8.471 6.38,-0.638 6.38,-3.464 6.38,-4.529 0,-2.719 -2.841,-4.934 -6.333,-4.934 -2.843,0 -5.355,1.501 -6.111,3.65 -0.408,1.157 -1.679,1.771 -2.837,1.356 -1.157,-0.406 -1.767,-1.677 -1.361,-2.833 1.396,-3.957 5.537,-6.619 10.309,-6.619 5.942,0 10.779,4.206 10.779,9.38 0,2.959 -1.348,8.056 -10.37,8.955 M 19.929,-168.77 H 4.936 v 23.775 c 0,1.23 -0.994,2.222 -2.227,2.222 -1.225,0 -2.22,-0.992 -2.22,-2.222 v -25.997 c 0,-1.229 0.995,-2.225 2.22,-2.225 h 17.22 c 1.23,0 2.222,0.996 2.222,2.225 0,1.227 -0.992,2.222 -2.222,2.222 m 10.106,26.111 c -1.229,0 -2.222,-0.997 -2.222,-2.226 v -25.997 c 0,-1.226 0.993,-2.222 2.222,-2.222 1.23,0 2.226,0.996 2.226,2.222 v 25.997 c 0,1.229 -0.996,2.226 -2.226,2.226 m 17.187,0 h -6.285 c -1.229,0 -2.227,-0.997 -2.227,-2.224 v -25.999 c 0,-1.226 0.998,-2.222 2.227,-2.222 h 6.285 c 8.396,0 15.229,6.829 15.229,15.222 0,8.395 -6.833,15.223 -15.229,15.223 m 0,-25.998 h -4.059 v 21.549 h 4.059 c 5.944,0 10.778,-4.837 10.778,-10.774 0,-5.941 -4.834,-10.775 -10.778,-10.775"
             style="fill:#fffbf3;fill-opacity:1;fill-rule:nonzero;stroke:none"
             id="path20" /></g><g
           id="g22"
           transform="translate(51.7998,62.2015)"><path
             d="m 0,0 c 3.369,0 6.109,2.503 6.109,5.789 0,3.285 -2.74,5.789 -6.109,5.789 -3.367,0 -6.072,-2.504 -6.072,-5.789 C -6.072,2.503 -3.367,0 0,0 m 0.02,9.465 c 2.1,0 3.679,-1.525 3.679,-3.676 0,-2.168 -1.579,-3.675 -3.679,-3.675 -2.137,0 -3.682,1.507 -3.682,3.675 0,2.151 1.545,3.676 3.682,3.676 M 28.652,0 c 2.777,0 4.858,1.826 4.858,4.824 v 6.551 H 31.169 V 4.653 c 0,-1.674 -1.078,-2.539 -2.517,-2.539 -1.424,0 -2.518,0.865 -2.518,2.539 v 6.722 h -2.34 V 4.824 C 23.794,1.826 25.857,0 28.652,0 m 14.745,0 c 2.223,0 4.077,1.065 5.069,2.775 l -1.772,1.219 c -0.763,-1.185 -1.839,-1.88 -3.278,-1.88 -2.135,0 -3.698,1.507 -3.698,3.658 0,2.168 1.563,3.693 3.698,3.693 1.439,0 2.515,-0.696 3.278,-1.879 l 1.772,1.217 c -1.008,1.71 -2.846,2.775 -5.05,2.775 -3.419,0 -6.108,-2.504 -6.108,-5.789 C 37.308,2.503 39.997,0 43.397,0 m -77.879,0 v 11.375 h -2.341 V 4.706 l -6.647,6.872 h -0.762 V 0.205 h 2.341 V 6.907 L -35.261,0 Z m 54.517,5.822 c 0,3.354 -2.567,5.553 -6.247,5.553 H 10.041 V 0.205 h 3.747 c 3.68,0 6.247,2.316 6.247,5.617 M 13.771,2.268 h -1.389 v 7.044 h 1.389 c 2.309,0 3.854,-1.287 3.854,-3.49 0,-2.149 -1.545,-3.554 -3.854,-3.554 m -29.584,1.879 h 1.719 l 2.968,-3.942 h 2.638 l -3.246,4.382 c 1.232,0.593 2.012,1.744 2.012,3.183 0,2.184 -1.717,3.605 -4.128,3.605 h -4.303 V 0.205 h 2.34 z m 0,5.215 h 1.963 c 1.094,0 1.734,-0.66 1.734,-1.592 0,-0.967 -0.64,-1.61 -1.734,-1.61 h -1.963 z m 89.97,-3.54 c 0,3.354 -2.567,5.553 -6.248,5.553 H 64.162 V 0.205 h 3.747 c 3.681,0 6.248,2.316 6.248,5.617 M 66.502,2.268 v 7.044 h 1.391 c 2.309,0 3.855,-1.287 3.855,-3.49 0,-2.149 -1.546,-3.554 -3.855,-3.554 z M 54.585,5.096 h 3.94 v 1.946 h -3.94 v 2.27 h 5.362 v 2.063 H 52.245 V 0.205 h 7.91 v 2.063 h -5.57 z M -27.497,0.205 h 2.341 v 9.107 h 3.68 v 2.063 h -9.681 V 9.312 h 3.66 z m -21.299,11.17 h -2.341 V 0.205 h 2.341 z M 100.868,0.205 h 2.34 v 4.4 l 3.94,6.77 h -2.585 l -2.518,-4.435 -2.531,4.435 h -2.601 l 3.955,-6.788 z m -5.842,3.282 c 0,1.372 -0.779,2.32 -2.028,2.759 0.537,0.508 0.849,1.185 0.849,2.016 0,1.844 -1.508,3.113 -3.627,3.113 H 86.161 V 0.205 h 5.101 c 2.222,0 3.764,1.351 3.764,3.282 m -6.611,5.927 h 1.615 c 0.973,0 1.493,-0.493 1.493,-1.272 0,-0.761 -0.52,-1.287 -1.493,-1.287 h -1.615 z m 0,-7.248 v 2.813 h 2.674 c 1.026,0 1.633,-0.543 1.633,-1.407 0,-0.882 -0.607,-1.406 -1.633,-1.406 z"
             style="fill:#fffbf3;fill-opacity:1;fill-rule:nonzero;stroke:none"
             id="path24" /></g><g
           id="g26"
           transform="translate(95.1616,35.0414)"><path
             d="m 0,0 c 1.755,0 3.336,-0.201 4.706,-0.594 1.369,-0.392 2.528,-0.975 3.438,-1.738 0.709,-0.595 1.242,-1.281 1.598,-2.055 0.357,-0.774 0.536,-1.634 0.536,-2.577 v -4.928 -4.926 c 0,-0.944 -0.179,-1.804 -0.536,-2.578 -0.356,-0.775 -0.889,-1.461 -1.598,-2.055 -0.91,-0.763 -2.069,-1.346 -3.438,-1.738 C 3.336,-23.582 1.755,-23.783 0,-23.783 h -6.704 -6.705 c -1.754,0 -3.336,0.201 -4.705,0.594 -1.37,0.392 -2.529,0.975 -3.439,1.738 -0.708,0.594 -1.241,1.28 -1.598,2.055 -0.356,0.774 -0.536,1.634 -0.536,2.578 v 4.926 4.928 c 0,0.943 0.18,1.803 0.536,2.577 0.357,0.774 0.89,1.46 1.598,2.055 0.91,0.763 2.069,1.346 3.439,1.738 1.369,0.393 2.951,0.594 4.705,0.594 l 6.705,0 z m 0,4.958 h -6.704 -6.705 c -4.949,0 -8.758,-1.335 -11.329,-3.492 -2.572,-2.157 -3.907,-5.138 -3.907,-8.43 v -4.928 -4.926 c 0,-3.292 1.335,-6.274 3.907,-8.431 2.571,-2.157 6.38,-3.492 11.329,-3.492 H -6.704 0 c 4.949,0 8.758,1.335 11.33,3.492 2.571,2.157 3.905,5.139 3.905,8.431 v 4.926 4.928 c 0,3.292 -1.334,6.273 -3.905,8.43 C 8.758,3.623 4.949,4.958 0,4.958 m -38.757,-29.687 c -0.303,0.303 -0.659,0.54 -1.047,0.701 -0.389,0.16 -0.808,0.245 -1.236,0.245 h -12.323 -12.322 c -1.754,0 -3.335,0.202 -4.705,0.594 -1.37,0.392 -2.529,0.975 -3.438,1.738 -0.709,0.594 -1.242,1.28 -1.599,2.055 -0.357,0.774 -0.536,1.634 -0.536,2.578 v 8.058 8.059 c 0,0.194 0.078,0.369 0.206,0.496 0.126,0.127 0.302,0.205 0.495,0.205 h 11.493 11.494 c 1.754,0 3.335,-0.201 4.705,-0.594 1.37,-0.392 2.528,-0.975 3.438,-1.738 0.708,-0.595 1.242,-1.281 1.599,-2.055 0.356,-0.774 0.535,-1.634 0.535,-2.577 v -4.631 -4.629 c 0,-0.581 0.236,-1.107 0.617,-1.488 0.381,-0.381 0.906,-0.616 1.488,-0.616 h 0.375 0.374 c 0.581,0 1.107,0.235 1.488,0.616 0.381,0.381 0.616,0.906 0.616,1.487 v 4.63 4.631 c 0,3.292 -1.335,6.273 -3.906,8.43 -2.572,2.157 -6.381,3.492 -11.329,3.492 h -13.271 -13.27 c -0.581,0 -1.107,-0.235 -1.488,-0.617 -0.381,-0.38 -0.616,-0.906 -0.616,-1.487 v -9.836 -9.836 c 0,-3.292 1.334,-6.273 3.906,-8.431 2.572,-2.157 6.38,-3.491 11.329,-3.491 h 11.595 11.595 c 0.237,0 0.468,-0.047 0.683,-0.136 0.215,-0.089 0.412,-0.22 0.579,-0.388 l 2.538,-2.537 2.538,-2.538 c 0.41,-0.41 0.949,-0.616 1.487,-0.616 0.539,0 1.077,0.205 1.487,0.615 l 0.259,0.258 0.258,0.258 c 0.415,0.415 0.622,0.959 0.622,1.503 0,0.544 -0.207,1.088 -0.622,1.503 l -3.045,3.044 z M 35.338,4.925 C 30.814,4.925 27.565,3.903 25.448,2.25 23.33,0.599 22.344,-1.685 22.344,-4.206 V -4.73 -5.256 c 0,-2.521 0.986,-4.804 3.104,-6.456 2.117,-1.652 5.366,-2.675 9.89,-2.675 h 7.03 7.031 c 1.534,0 2.909,-0.144 4.068,-0.42 1.158,-0.275 2.101,-0.681 2.773,-1.206 0.414,-0.322 0.713,-0.68 0.908,-1.163 0.197,-0.483 0.289,-1.09 0.289,-1.909 0,-0.821 -0.092,-1.428 -0.289,-1.91 -0.195,-0.483 -0.494,-0.841 -0.908,-1.163 -0.672,-0.524 -1.615,-0.931 -2.773,-1.205 -1.159,-0.276 -2.534,-0.42 -4.068,-0.42 h -8.318 -8.316 c -0.949,0 -1.878,0.181 -2.744,0.527 -0.864,0.346 -1.664,0.855 -2.351,1.509 l -0.561,0.532 -0.559,0.533 c -0.427,0.406 -0.978,0.599 -1.523,0.584 -0.546,-0.014 -1.085,-0.237 -1.488,-0.667 l -0.243,-0.256 -0.243,-0.257 c -0.401,-0.426 -0.592,-0.974 -0.577,-1.516 0.014,-0.543 0.235,-1.079 0.66,-1.482 l 0.56,-0.534 0.561,-0.533 c 1.147,-1.091 2.482,-1.94 3.927,-2.516 1.444,-0.578 2.997,-0.882 4.581,-0.882 h 8.316 8.318 c 4.524,0 7.773,1.022 9.891,2.675 2.117,1.652 3.104,3.935 3.104,6.456 v 0.525 0.525 c 0,2.521 -0.987,4.804 -3.104,6.456 -2.118,1.653 -5.367,2.674 -9.891,2.674 h -7.031 -7.03 c -1.533,0 -2.907,0.145 -4.067,0.42 -1.158,0.276 -2.102,0.682 -2.774,1.206 -0.413,0.323 -0.713,0.682 -0.908,1.164 -0.196,0.483 -0.288,1.089 -0.288,1.91 0,0.82 0.092,1.426 0.288,1.909 0.195,0.482 0.495,0.84 0.908,1.163 0.672,0.523 1.616,0.93 2.774,1.205 1.16,0.275 2.534,0.42 4.067,0.42 l 7.64,0.016 L 50.616,0 c 0.915,0 1.814,-0.169 2.654,-0.49 0.838,-0.322 1.62,-0.797 2.3,-1.407 l 0.707,-0.636 0.708,-0.636 c 0.437,-0.391 0.99,-0.569 1.533,-0.54 0.543,0.028 1.074,0.264 1.466,0.699 l 0.237,0.263 0.236,0.263 c 0.394,0.436 0.571,0.991 0.543,1.534 -0.029,0.544 -0.265,1.077 -0.702,1.469 L 59.59,1.154 58.883,1.79 c -1.135,1.02 -2.439,1.812 -3.84,2.349 -1.401,0.537 -2.9,0.819 -4.427,0.819 L 42.978,4.941 Z M -95.046,2.832 v -14.724 -14.723 c 0,-0.588 0.237,-1.118 0.622,-1.503 0.384,-0.385 0.916,-0.623 1.503,-0.623 h 0.354 0.353 c 0.586,0 1.118,0.238 1.502,0.623 0.385,0.385 0.623,0.915 0.623,1.503 v 14.723 14.724 c 0,0.587 -0.238,1.118 -0.623,1.503 -0.384,0.385 -0.916,0.623 -1.502,0.623 h -0.353 -0.354 c -0.587,0 -1.119,-0.238 -1.503,-0.623 -0.385,-0.385 -0.622,-0.916 -0.622,-1.503"
             style="fill:#fffbf3;fill-opacity:1;fill-rule:nonzero;stroke:none"
             id="path28" /></g></g></g></g></svg>
