<svg xmlns="http://www.w3.org/2000/svg" xmlns:xlink="http://www.w3.org/1999/xlink" width="144.763" height="106.246" viewBox="0 0 144.763 106.246">
  <defs>
    <clipPath id="clip-path">
      <rect id="Rectangle_29" data-name="Rectangle 29" width="144.763" height="106.246" fill="none"/>
    </clipPath>
  </defs>
  <g id="Group_96" data-name="Group 96" transform="translate(0 0.001)">
    <g id="Group_95" data-name="Group 95" transform="translate(0 -0.001)">
      <g id="Group_94" data-name="Group 94" transform="translate(0 0)" clip-path="url(#clip-path)">
        <path id="Path_24" data-name="Path 24" d="M121.9,98.925a22.135,22.135,0,0,1-5.316-15.686c.133-11.014,5.613-23.316,9.677-30.562,4.276-7.6,4.98-13.053,4.231-16.613a9.041,9.041,0,0,0-5.8-6.8,15.754,15.754,0,0,0-18.754,6.875l-2.251,57.807a9.131,9.131,0,0,1-9.115,8.746H12.431a9.132,9.132,0,0,1-9.126-8.746L.008,9.509a9.135,9.135,0,0,1,8.75-9.5C8.882,0,9.008,0,9.132,0H97.857a9.132,9.132,0,0,1,9.128,9.133c0,.126,0,.252-.007.378l-.6,15.364a23.34,23.34,0,0,1,21.088-2.595,16.565,16.565,0,0,1,10.388,12.245c1.256,6-.27,13.346-5.034,21.83-3.911,6.977-8.611,17.908-8.719,26.97a14.681,14.681,0,0,0,3.322,10.5c2.307,2.5,6.414,4.573,13.755,4.913a3.757,3.757,0,1,1-.342,7.506C132.256,105.85,125.982,103.336,121.9,98.925ZM96.162,93.636,99.462,9.2A1.613,1.613,0,0,0,97.92,7.517l-.063,0H9.132A1.62,1.62,0,0,0,7.521,9.139l0,.063,3.295,84.431a1.616,1.616,0,0,0,1.614,1.539H94.56a1.609,1.609,0,0,0,1.6-1.539Zm-64.9-53.167-.781-1.753H16.824A3.758,3.758,0,1,1,16.64,31.2c.061,0,.124,0,.185,0H32.605a3.783,3.783,0,0,1,2.539.986l.785.72a3.835,3.835,0,0,1,1.051,1.665,17.459,17.459,0,0,0,33.362,0,3.811,3.811,0,0,1,1.125-1.724l.817-.718A3.764,3.764,0,0,1,74.76,31.2H90.536a3.758,3.758,0,0,1,.187,7.515c-.061,0-.124,0-.187,0h-13.7l-.781,1.753a24.981,24.981,0,0,1-44.786,0Z" transform="translate(0.001 0)" fill="#fff" fill-rule="evenodd"/>
      </g>
    </g>
  </g>
</svg>
