<svg xmlns="http://www.w3.org/2000/svg" xmlns:xlink="http://www.w3.org/1999/xlink" width="138.387" height="126.861" viewBox="0 0 138.387 126.861">
  <defs>
    <clipPath id="clip-path">
      <rect id="Rectangle_28" data-name="Rectangle 28" width="138.388" height="126.861" fill="none"/>
    </clipPath>
  </defs>
  <g id="Group_93" data-name="Group 93" transform="translate(0 0)">
    <g id="Group_92" data-name="Group 92" transform="translate(0 0)">
      <g id="Group_91" data-name="Group 91" transform="translate(0 0)" clip-path="url(#clip-path)">
        <path id="Path_23" data-name="Path 23" d="M137.1,98.506c-16.85-11.169-16.456-48.6-16.1-81.627.047-4.753.1-9.441.1-14A2.884,2.884,0,0,0,118.209,0H14.415a2.213,2.213,0,0,0-.27.056,2.781,2.781,0,0,0-.576.115,2.4,2.4,0,0,0-.491.2,2.744,2.744,0,0,0-.45.3,2.831,2.831,0,0,0-.416.421c-.059.074-.137.115-.2.191L.484,18.585A2.845,2.845,0,0,0,0,20.183V123.969a2.872,2.872,0,0,0,.225,1.114,3,3,0,0,0,.335.5,2.71,2.71,0,0,0,.284.428c.1.092.225.133.324.214a2.511,2.511,0,0,0,1.717.635h98.026a2.845,2.845,0,0,0,1.6-.484l17.3-11.532c.081-.052.122-.133.191-.191a2.539,2.539,0,0,0,.416-.421,2.744,2.744,0,0,0,.3-.45,3.058,3.058,0,0,0,.207-.5,2.769,2.769,0,0,0,.115-.572,2.25,2.25,0,0,0,.056-.272v-8.649h14.417A2.886,2.886,0,0,0,137.1,98.5ZM11.518,12.4v98.846l-5.766,5.766V21.038Zm88.509,108.7H9.839l5.766-5.766h93.075Zm15.288-11.532H17.3v-39.3c3.6,14.854,9.371,26.93,18.589,33.042a2.883,2.883,0,0,0,1.591.479h77.846ZM38.369,98.04C20.183,84.974,17.439,42.5,17.3,5.768h97.995c-.018,3.639-.041,7.305-.074,11.055-.34,32.084-.675,65.137,12.812,81.206Z" transform="translate(0 0)" fill="#fff"/>
      </g>
    </g>
  </g>
</svg>
