<svg xmlns="http://www.w3.org/2000/svg" xmlns:xlink="http://www.w3.org/1999/xlink" width="129.383" height="115.286" viewBox="0 0 129.383 115.286">
  <defs>
    <clipPath id="clip-path">
      <rect id="Rectangle_25" data-name="Rectangle 25" width="93.1" height="115.286" fill="none"/>
    </clipPath>
    <clipPath id="clip-path-2">
      <rect id="Rectangle_26" data-name="Rectangle 26" width="129.383" height="115.286" fill="none"/>
    </clipPath>
    <clipPath id="clip-path-3">
      <rect id="Rectangle_27" data-name="Rectangle 27" width="36.551" height="115.286" fill="none"/>
    </clipPath>
  </defs>
  <g id="Group_90" data-name="Group 90" transform="translate(0 0.001)">
    <g id="Group_89" data-name="Group 89" transform="translate(0 -0.001)">
      <g id="Group_84" data-name="Group 84" transform="translate(0.005 0)">
        <g id="Group_83" data-name="Group 83" clip-path="url(#clip-path)">
          <path id="Path_19" data-name="Path 19" d="M58.629,50.193V12.145a12.129,12.129,0,0,0-24.258,0V50.179A46.574,46.574,0,0,0,0,95.059v18.162a2.026,2.026,0,0,0,2.025,2.025H90.973A2.026,2.026,0,0,0,93,113.221V95.059A46.565,46.565,0,0,0,58.638,50.181ZM38.414,12.145a8.086,8.086,0,1,1,16.172,0V49.293a45.933,45.933,0,0,0-16.172,0Zm-34.37,95.04h84.9v4.026H4.044Zm84.9-4.051H4.044V95.062a42.452,42.452,0,0,1,84.9,0Z" transform="translate(-0.005 0.021)" fill="#fff"/>
        </g>
      </g>
      <g id="Group_86" data-name="Group 86" transform="translate(0 0)">
        <g id="Group_85" data-name="Group 85" clip-path="url(#clip-path-2)">
          <path id="Path_20" data-name="Path 20" d="M30.1,8.778a6.065,6.065,0,1,0-6.065,6.065A6.066,6.066,0,0,0,30.1,8.778m-8.086,0A2.025,2.025,0,1,1,24.036,10.8,2.026,2.026,0,0,1,22.01,8.778Z" transform="translate(22.467 3.393)" fill="#fff"/>
          <path id="Path_21" data-name="Path 21" d="M23.809,28.094V11.92a2.025,2.025,0,0,0-4.051,0V28.094a2.025,2.025,0,0,0,4.051.016Z" transform="translate(24.708 12.382)" fill="#fff"/>
        </g>
      </g>
      <g id="Group_88" data-name="Group 88" transform="translate(92.832 0)">
        <g id="Group_87" data-name="Group 87" clip-path="url(#clip-path-3)">
          <path id="Path_22" data-name="Path 22" d="M71.65,0a6.054,6.054,0,0,0-5.692,4.051h-20.6a1.716,1.716,0,0,0-.187.038,2.017,2.017,0,0,0-.414.083,2.382,2.382,0,0,0-.342.142,2.067,2.067,0,0,0-.61.506,1.879,1.879,0,0,0-.133.135L41.651,8a1.987,1.987,0,0,0-.3.736,1.869,1.869,0,0,0,0,.317,1.882,1.882,0,0,0,0,.45,2.038,2.038,0,0,0,.3.722l1.276,1.911L41.649,14.06a1.987,1.987,0,0,0-.3.736,1.868,1.868,0,0,0,0,.317,1.883,1.883,0,0,0,0,.45,2.038,2.038,0,0,0,.3.722L42.922,18.2l-1.276,1.922a1.986,1.986,0,0,0-.3.736,1.5,1.5,0,0,0,0,.317,1.883,1.883,0,0,0,0,.45,2.024,2.024,0,0,0,.3.725l1.276,1.911-1.276,1.922a1.986,1.986,0,0,0-.3.736,1.866,1.866,0,0,0,0,.317,1.882,1.882,0,0,0,0,.45,2.037,2.037,0,0,0,.3.722l1.276,1.911-1.276,1.922a1.986,1.986,0,0,0-.3.736,1.866,1.866,0,0,0,0,.317,1.881,1.881,0,0,0,0,.45,2.038,2.038,0,0,0,.3.722l1.276,1.911L41.64,38.3a1.987,1.987,0,0,0-.3.736,1.5,1.5,0,0,0,0,.317,1.882,1.882,0,0,0,0,.45,2.024,2.024,0,0,0,.3.725l1.276,1.911-1.276,1.922a1.987,1.987,0,0,0-.3.736,1.5,1.5,0,0,0,0,.317,1.882,1.882,0,0,0,0,.45,2.038,2.038,0,0,0,.3.722l1.276,1.911-1.276,1.922a1.987,1.987,0,0,0-.3.736,1.5,1.5,0,0,0,0,.317,1.882,1.882,0,0,0,0,.45,2.038,2.038,0,0,0,.3.722l1.276,1.911-1.276,1.922a1.987,1.987,0,0,0-.3.736,1.5,1.5,0,0,0,0,.317,1.883,1.883,0,0,0,0,.45,2.024,2.024,0,0,0,.3.725l2.025,3.022a2.023,2.023,0,0,0,1.683.9,2.181,2.181,0,0,0,.38-.054H65.56v46.483a6.065,6.065,0,1,0,12.128.232c0-.077,0-.153,0-.232V6.07A6.078,6.078,0,0,0,71.623,0ZM65.585,8.091v2.025H46.444l-.675-1.006L46.444,8.1ZM46.4,40.436l-.632-.947.713-1.074h19.1V40.44Zm0-6.065-.639-.961.7-1.062H65.576v2.025Zm0-6.065-.646-.97.7-1.051H65.572V28.31Zm0-6.065-.655-.983.689-1.04h19.13v2.025Zm0-6.065-.662-.995.675-1.026h19.13V16.18ZM46.366,46.5l-.623-.936.72-1.085H65.554V46.5Zm0,6.076-.63-.945.727-1.1H65.545v2.041Zm0,6.076-.635-.952.72-1.089H65.54v2.041ZM71.608,111.2a2.026,2.026,0,0,1-2.025-2.025V6.072a2.025,2.025,0,0,1,4.051-.016V109.2a2.026,2.026,0,0,1-2.025,2.025Z" transform="translate(-41.16 0.006)" fill="#fff"/>
        </g>
      </g>
    </g>
  </g>
</svg>
